<mxfile host="app.diagrams.net" modified="2023-05-15T03:24:54.709Z" agent="Mozilla/5.0 (X11; Linux x86_64) AppleWebKit/537.36 (KHTML, like Gecko) Chrome/112.0.0.0 Safari/537.36 Edg/112.0.1722.58" version="21.3.0" etag="uRySv5kCvFfBBMNkW6Oc" type="github">
  <diagram name="第 1 页" id="ZNkfzjwOPzD8p8avh4Mc">
    <mxGraphModel>
      <root>
        <mxCell id="0" />
        <mxCell id="1" parent="0" />
      </root>
    </mxGraphModel>
  </diagram>
</mxfile>
